<?xml version="1.0" standalone="no"?>
<!DOCTYPE svg PUBLIC "-//W3C//DTD SVG 20010904//EN"
 "http://www.w3.org/TR/2001/REC-SVG-20010904/DTD/svg10.dtd">
<svg version="1.0" xmlns="http://www.w3.org/2000/svg"
 width="1512.000000pt" height="2016.000000pt" viewBox="0 0 1512.000000 2016.000000"
 preserveAspectRatio="xMidYMid meet">

<g transform="translate(0.000000,2016.000000) scale(0.100000,-0.100000)"
fill="#000000" stroke="none">
<path d="M0 18975 c0 -783 3 -1185 10 -1185 6 0 10 -20 10 -44 0 -36 4 -46 20
-51 11 -3 20 -15 20 -26 0 -10 9 -28 20 -39 11 -11 20 -30 20 -43 0 -12 9 -28
21 -35 14 -9 19 -21 17 -40 -4 -32 -19 -33 -34 -3 -12 24 -24 18 -24 -14 0
-13 -6 -28 -14 -34 -8 -6 -17 -32 -21 -56 -3 -25 -10 -45 -16 -45 -10 0 -12
-40 -3 -64 3 -9 10 -13 15 -10 14 9 23 -26 10 -39 -10 -9 -15 -8 -22 6 -6 9
-14 17 -19 17 -16 0 -11 -66 5 -80 19 -16 19 -30 0 -30 -12 0 -14 -51 -15
-357 0 -356 0 -358 19 -323 81 150 190 306 275 392 36 36 66 70 66 75 0 5 -7
18 -15 29 -23 30 -18 54 5 26 20 -24 46 -21 36 4 -4 10 3 13 27 11 22 -1 31 2
29 11 -1 8 2 11 7 8 13 -8 122 65 114 77 -8 13 71 1 101 -15 11 -7 29 -11 39
-9 31 4 85 -38 109 -87 57 -115 8 -377 -106 -565 -39 -64 -42 -67 -73 -61 -34
6 -40 -9 -14 -40 14 -17 1 -45 -61 -131 -16 -22 -41 -60 -57 -84 -40 -61 -165
-185 -234 -231 -82 -55 -161 -83 -219 -77 l-48 4 0 -7908 0 -7909 7560 0 7560
0 0 10080 0 10080 -7560 0 -7560 0 0 -1185z m114 -1568 c-3 -9 -10 -17 -14
-17 -12 0 -23 38 -14 51 10 17 36 -14 28 -34z m-39 -80 c0 -26 -20 -25 -23 2
-3 16 1 22 10 19 7 -3 13 -12 13 -21z m1220 -1076 c3 -5 -2 -16 -10 -25 -12
-12 -13 -20 -4 -39 9 -20 8 -35 -4 -69 -9 -23 -18 -55 -21 -69 -4 -19 -14 -28
-36 -32 -21 -5 -30 -12 -30 -27 0 -11 -5 -20 -11 -20 -5 0 -8 -4 -5 -9 10 -15
-22 -77 -49 -95 -14 -9 -25 -23 -25 -31 0 -8 -9 -19 -20 -25 -20 -11 -45 -56
-41 -74 4 -20 -12 -46 -28 -46 -12 0 -20 -10 -24 -27 -3 -16 -16 -32 -28 -38
-13 -5 -26 -21 -29 -34 -4 -17 -15 -27 -38 -33 -20 -6 -37 -19 -47 -38 -9 -17
-21 -29 -27 -27 -6 1 -17 -8 -23 -21 -15 -27 -39 -45 -79 -59 -16 -5 -30 -16
-32 -25 -6 -41 -17 -57 -44 -63 -17 -4 -32 -11 -35 -16 -10 -16 -62 -10 -69 7
-11 28 16 123 37 130 10 3 27 25 37 49 10 23 22 44 27 46 5 2 33 52 62 111 33
65 61 110 72 113 12 4 19 16 19 32 0 18 8 28 30 36 21 8 30 18 30 33 0 13 8
24 20 27 11 3 24 17 30 31 5 15 18 29 27 33 24 9 34 25 27 44 -3 11 3 19 19
23 35 8 127 94 121 111 -4 10 9 22 40 37 25 12 49 30 52 40 3 11 19 21 35 25
16 3 32 10 35 14 7 12 31 11 39 0z m-696 -1007 c2 -2 -7 -4 -22 -4 -14 0 -29
5 -32 10 -6 10 42 4 54 -6z m4585 -73 c121 -25 171 -49 171 -81 0 -30 -28 -38
-150 -46 -155 -11 -442 28 -526 71 -46 24 -37 57 21 72 69 19 360 9 484 -16z
m2199 -2156 c-9 -19 -18 -33 -21 -31 -4 5 26 66 33 66 3 0 -3 -16 -12 -35z
m105 -35 c-2 -28 0 -40 9 -40 7 0 13 -9 13 -20 0 -11 4 -20 9 -20 17 0 20 -29
6 -44 -8 -8 -15 -21 -15 -28 -1 -7 -6 -1 -13 15 l-12 27 -40 -19 c-51 -24
-135 -50 -135 -42 0 3 8 35 18 70 12 42 21 59 25 48 3 -9 2 -19 -3 -22 -15 -9
-12 -18 13 -36 22 -16 23 -16 25 8 1 14 10 40 21 57 10 17 17 36 14 43 -5 13
34 43 55 43 10 0 13 -11 10 -40z m42 -269 c0 -36 -33 -115 -66 -158 -13 -17
-24 -36 -24 -42 0 -13 -23 -37 -69 -71 -50 -37 -74 -62 -93 -98 -21 -39 -38
-41 -38 -4 1 85 46 262 67 262 3 0 16 -11 29 -25 32 -35 77 -33 114 3 26 26
39 59 55 135 7 36 25 35 25 -2z m-140 -14 c0 -16 -9 -26 -30 -34 -35 -13 -38
-5 -9 31 25 32 39 33 39 3z m375 14 c-16 -14 -55 -23 -55 -13 0 12 17 20 45
21 11 1 15 -3 10 -8z m-15 -56 c0 -15 -38 -40 -47 -31 -3 3 5 14 18 25 29 25
29 25 29 6z m100 -80 c0 -10 -10 -15 -27 -15 -27 1 -27 1 -9 15 25 19 36 19
36 0z m-382 -248 c4 -42 7 -43 50 -21 30 15 52 12 52 -6 0 -13 -95 -41 -114
-34 -11 4 -26 -2 -40 -15 -33 -31 -41 -12 -17 41 11 24 22 51 25 61 11 33 41
16 44 -26z m-318 -47 c0 -5 -13 -16 -29 -25 -17 -8 -37 -25 -45 -37 -14 -19
-16 -20 -16 -4 0 22 53 76 74 76 9 0 16 -4 16 -10z m350 -75 c0 -11 8 -13 30
-8 23 4 30 2 30 -10 0 -16 -37 -34 -47 -23 -4 3 -17 -1 -30 -9 -21 -14 -24
-14 -29 0 -7 17 20 65 36 65 6 0 10 -7 10 -15z m-80 -94 c0 -11 -4 -22 -9 -25
-5 -3 -9 -31 -10 -61 0 -64 13 -77 76 -68 35 5 41 2 46 -16 4 -16 -4 -28 -31
-50 -21 -15 -47 -32 -60 -36 -17 -5 -22 -12 -17 -23 14 -36 -14 6 -56 86 -35
66 -42 86 -33 100 12 18 30 15 28 -5 -1 -7 2 -10 7 -7 5 3 8 11 7 17 -4 17 32
107 43 107 5 0 9 -9 9 -19z m80 -1 c0 -5 -8 -11 -19 -15 -10 -3 -18 -13 -17
-22 0 -9 -5 -18 -13 -21 -10 -3 -11 1 -6 18 13 40 55 71 55 40z m87 -7 c-28
-3 -40 -10 -47 -27 -5 -13 -16 -26 -24 -29 -19 -7 -21 4 -4 21 7 7 8 12 3 12
-6 0 1 7 15 14 14 8 41 14 60 13 l35 0 -38 -4z m-7037 -173 c0 -5 -4 -10 -10
-10 -5 0 -10 5 -10 10 0 6 5 10 10 10 6 0 10 -4 10 -10z m-40 -20 c0 -5 -4
-10 -9 -10 -6 0 -13 5 -16 10 -3 6 1 10 9 10 9 0 16 -4 16 -10z m6158 -61
c-18 -12 -23 8 -6 28 12 15 13 15 16 -2 2 -10 -2 -21 -10 -26z m-18 -22 c0 -2
-10 -12 -21 -23 -22 -19 -22 -19 -8 4 12 19 29 30 29 19z m710 -163 c-17 -51
-23 -35 -8 22 7 27 14 41 16 31 2 -9 -2 -33 -8 -53z m247 29 c48 -31 54 -38
36 -41 -19 -3 -20 -7 -13 -33 12 -41 10 -101 -4 -128 -12 -22 -13 -22 -40 14
-18 24 -30 55 -36 93 -4 31 -11 74 -15 95 -9 47 -1 47 72 0z m-1041 -99 c-8
-43 -15 -65 -15 -47 -1 35 19 137 25 130 2 -2 -2 -40 -10 -83z m238 67 c3 -5
-1 -14 -9 -21 -8 -7 -15 -24 -15 -39 0 -29 -34 -91 -50 -91 -8 0 7 50 45 143
8 18 21 22 29 8z m-2 -191 c-5 -32 -20 -47 -56 -56 -26 -6 -28 -5 -21 17 21
66 24 70 53 67 22 -2 26 -7 24 -28z m1078 0 c0 -11 9 -29 20 -40 28 -28 25
-54 -12 -96 -29 -33 -31 -37 -15 -49 9 -6 13 -16 9 -21 -4 -4 0 -3 9 4 13 9
16 9 16 -3 0 -20 -25 -40 -66 -54 -32 -10 -37 -9 -66 19 -36 35 -42 36 -67 13
-13 -11 -22 -13 -29 -6 -7 7 1 17 28 33 21 12 44 23 52 25 19 2 30 33 24 66
-4 22 1 31 30 51 29 20 33 27 25 42 -8 14 -7 21 3 27 23 15 39 10 39 -11z
m-283 -12 c13 -12 23 -32 23 -44 0 -19 -5 -22 -40 -21 -43 2 -46 7 -29 56 13
37 16 37 46 9z m-919 -370 c-44 -172 -81 -315 -84 -317 -13 -13 2 59 61 294
82 327 84 335 94 335 5 0 -27 -141 -71 -312z m826 227 c6 17 8 16 31 -5 14
-13 25 -32 25 -42 0 -15 -8 -18 -54 -18 -30 0 -58 5 -61 10 -5 8 -11 7 -21 -1
-10 -8 -18 -9 -25 -2 -15 15 11 56 27 43 7 -7 17 -3 29 10 16 18 19 18 30 4
11 -15 12 -15 19 1z m489 -76 c-10 -9 -31 -12 -58 -9 -14 2 -11 4 10 9 40 9
57 9 48 0z m-466 -42 c5 -3 33 -9 62 -12 43 -5 57 -3 74 12 21 18 21 18 7 -2
-8 -11 -24 -32 -36 -47 -12 -15 -24 -33 -27 -40 -3 -10 -10 -8 -26 6 -12 11
-19 26 -17 33 3 7 -4 17 -14 23 -16 9 -20 8 -20 -5 0 -20 -8 -19 -64 5 -46 21
-57 35 -34 42 14 5 79 -6 95 -15z m-989 -30 c-1 -13 -8 -24 -15 -24 -16 0 -16
3 -3 28 14 25 20 24 18 -4z m1190 -39 c-13 -20 -28 -44 -34 -54 -18 -29 -28
-9 -14 26 19 46 51 83 62 72 6 -6 0 -23 -14 -44z m222 32 c0 -8 -60 -30 -83
-30 -21 0 3 26 29 31 44 10 54 10 54 -1z m-453 -52 c43 -28 80 -53 83 -55 11
-9 -37 -34 -114 -59 -139 -44 -139 -44 -128 -31 18 22 52 121 52 153 0 58 9
58 107 -8z m611 20 c-6 -17 -36 -34 -45 -24 -4 4 1 14 11 22 24 17 39 18 34 2z
m-108 -37 c-5 -11 -21 -28 -35 -39 -13 -11 -21 -23 -17 -27 4 -3 3 -6 -3 -5
-26 6 -32 -3 -32 -45 0 -52 -6 -63 -27 -46 -11 9 -15 31 -13 79 l2 67 50 17
c71 23 88 23 75 -1z m38 -103 c-23 -46 -50 -84 -58 -86 -26 -4 -50 21 -44 45
5 18 10 20 30 13 19 -8 26 -5 34 10 13 24 13 40 0 20 -7 -10 -10 -11 -10 -2 0
7 11 17 25 22 13 5 31 23 40 40 9 18 19 30 22 27 2 -3 -15 -43 -39 -89z m-388
-18 c-6 -11 -15 -18 -21 -15 -13 9 -11 21 8 41 21 20 29 4 13 -26z m-126 -66
c-45 -86 -73 -128 -75 -109 0 6 -2 20 -5 32 -2 12 1 25 6 28 6 4 7 11 4 17 -4
7 -2 8 4 4 7 -4 12 -3 12 3 0 5 -6 11 -12 14 -7 2 8 17 35 33 26 16 47 34 47
39 0 11 21 37 27 32 1 -2 -18 -43 -43 -93z m290 50 c5 -14 4 -15 -9 -4 -17 14
-19 20 -6 20 5 0 12 -7 15 -16z m-494 -3 c0 -12 -21 -19 -37 -13 -21 7 -15 17
12 20 14 1 25 -2 25 -7z m295 -33 c-9 -47 -46 -140 -61 -157 -30 -33 -26 4 8
77 20 42 39 85 42 95 9 30 18 18 11 -15z m288 -30 c29 1 9 -16 -30 -27 -44
-12 -48 -10 -33 19 8 15 17 19 28 14 9 -3 25 -6 35 -6z m-480 -21 c-3 -5 -11
-6 -19 -3 -8 3 -14 1 -14 -4 0 -5 -7 -7 -15 -4 -27 11 -16 24 19 21 19 -1 32
-6 29 -10z m-128 -7 c3 -5 1 -10 -4 -10 -6 0 -11 5 -11 10 0 6 2 10 4 10 3 0
8 -4 11 -10z m685 -33 c0 -2 -7 -18 -15 -35 -9 -17 -32 -75 -51 -128 -19 -54
-40 -104 -46 -111 -14 -17 -47 -10 -93 20 -26 17 -33 27 -29 42 7 21 39 98 52
125 12 23 182 104 182 87z m-130 -12 c0 -2 -10 -10 -22 -16 -21 -11 -22 -11
-9 4 13 16 31 23 31 12z m-258 -102 c-3 -16 -7 -22 -10 -15 -4 13 4 42 11 42
2 0 2 -12 -1 -27z m-62 -21 c0 -5 -7 -17 -15 -28 -15 -19 -20 -8 -9 20 6 17
24 22 24 8z m42 -57 c-12 -26 -42 -35 -42 -12 0 7 7 23 16 36 22 31 43 13 26
-24z m-409 18 c-4 -11 -3 -14 5 -9 7 4 12 1 12 -8 0 -9 -6 -16 -14 -16 -8 0
-22 -10 -30 -22 -9 -12 -19 -18 -23 -14 -4 4 -1 13 8 19 9 7 19 24 23 40 3 15
11 27 16 27 5 0 6 -7 3 -17z m377 -135 c-37 -110 -42 -118 -61 -118 -23 0 -25
23 -4 40 9 7 15 20 14 29 -3 36 1 52 13 45 7 -5 9 -2 6 8 -6 15 39 74 49 64 3
-2 -5 -33 -17 -68z m125 40 c-14 -71 -26 -108 -34 -108 -10 0 -6 22 16 93 17
54 28 63 18 15z m-1193 -287 c-42 -167 -78 -299 -79 -294 -4 10 133 579 143
595 17 28 6 -24 -64 -301z m1298 274 c6 -8 9 -19 5 -25 -7 -12 -65 -43 -70
-38 -2 2 2 20 8 41 13 39 35 48 57 22z m-624 -7 c9 -15 -27 -41 -40 -28 -6 6
-5 15 4 25 15 18 26 19 36 3z m699 -105 c-8 -55 -31 -141 -52 -195 -10 -26
-21 -38 -34 -38 -20 0 -99 48 -98 59 0 3 6 35 13 71 l12 65 74 42 c41 23 79
42 83 42 5 1 5 -20 2 -46z m160 -7 c-9 -21 -18 -36 -21 -33 -3 2 3 24 12 48
10 23 19 38 21 33 2 -6 -4 -27 -12 -48z m-931 12 c-6 -21 -5 -22 11 -8 17 14
17 14 4 -7 -16 -27 -34 -15 -24 16 3 12 9 21 11 21 3 0 2 -10 -2 -22z m492
-78 c-1 -35 -16 -41 -16 -7 0 20 7 37 15 37 1 0 2 -13 1 -30z m50 -57 c-10
-10 -19 5 -10 18 6 11 8 11 12 0 2 -7 1 -15 -2 -18z m-121 -140 c-3 -13 -11
-23 -19 -23 -15 0 -10 90 8 130 10 23 11 20 14 -29 2 -30 1 -65 -3 -78z m180
43 c22 -16 15 -41 -14 -49 -18 -4 -21 -1 -21 29 0 37 7 41 35 20z m75 -104 c0
-11 -14 -25 -35 -35 -33 -16 -35 -16 -35 1 0 14 40 44 68 51 1 1 2 -7 2 -17z
m527 -18 c-3 -3 -12 -4 -19 -1 -8 3 -5 6 6 6 11 1 17 -2 13 -5z m-727 -54 c0
-5 -4 -10 -10 -10 -5 0 -10 5 -10 10 0 6 5 10 10 10 6 0 10 -4 10 -10z m-9
-57 c-10 -17 -10 -16 -11 3 0 23 13 41 18 25 2 -6 -1 -18 -7 -28z m-1164 -75
c-3 -8 -6 -5 -6 6 -1 11 2 17 5 13 3 -3 4 -12 1 -19z m594 -2695 c-9 -16 -10
-15 -11 7 0 14 4 36 8 50 7 24 7 24 10 -7 2 -18 -1 -41 -7 -50z m2451 -488
c31 -8 47 -35 19 -35 -10 0 -43 5 -74 11 -43 9 -57 16 -57 29 0 17 24 16 112
-5z m1717 -646 c-16 -10 -23 -4 -14 10 3 6 11 8 17 5 6 -4 5 -9 -3 -15z m19
-46 c12 -3 22 -10 22 -15 0 -9 -54 -2 -72 9 -16 9 -7 25 10 18 9 -4 27 -10 40
-12z m661 -5 c13 -5 21 -11 18 -14 -8 -8 -105 15 -112 26 -6 10 57 2 94 -12z
m-263 -89 c3 -6 2 -15 -2 -19 -12 -12 -38 5 -30 19 9 14 23 14 32 0z m209 1
c51 -8 138 -38 120 -41 -5 -1 -26 -3 -45 -5 -19 -2 -41 -6 -49 -9 -19 -7 -91
14 -91 27 0 6 -11 8 -28 5 -32 -6 -58 5 -48 22 8 13 69 13 141 1z m1598 -17
c4 -2 7 -8 7 -14 0 -16 -29 -13 -165 21 -31 7 -18 8 55 3 52 -3 98 -7 103 -10z
m-1410 -30 c-7 -2 -19 -2 -25 0 -7 3 -2 5 12 5 14 0 19 -2 13 -5z m830 0 c-7
-2 -21 -2 -30 0 -10 3 -4 5 12 5 17 0 24 -2 18 -5z m577 -33 c0 -5 -9 -10 -19
-10 -11 0 -23 5 -26 10 -4 6 5 10 19 10 14 0 26 -4 26 -10z m343 -17 c-7 -2
-19 -2 -25 0 -7 3 -2 5 12 5 14 0 19 -2 13 -5z m-1073 -7 c0 -2 -7 -6 -15 -10
-8 -3 -15 -1 -15 4 0 6 7 10 15 10 8 0 15 -2 15 -4z m-50 -56 c0 -13 -47 -28
-60 -20 -22 14 5 38 35 32 14 -2 25 -8 25 -12z m-3356 -88 c2 -4 -2 -18 -10
-32 l-13 -25 -1 33 c0 29 12 43 24 24z m3521 -202 c3 -5 -3 -10 -14 -10 -12 0
-21 5 -21 10 0 6 6 10 14 10 8 0 18 -4 21 -10z m1279 -626 c3 -8 2 -12 -4 -9
-6 3 -10 10 -10 16 0 14 7 11 14 -7z m243 -230 c-3 -3 -12 -4 -19 -1 -8 3 -5
6 6 6 11 1 17 -2 13 -5z m-9127 -574 c0 -5 -4 -10 -10 -10 -5 0 -10 5 -10 10
0 6 5 10 10 10 6 0 10 -4 10 -10z m6333 -154 c15 -12 16 -18 7 -35 -13 -25
-23 -26 -44 -5 -19 19 -20 26 -4 42 15 15 19 15 41 -2z m-108 -36 c-3 -5 -13
-10 -21 -10 -8 0 -12 5 -9 10 3 6 13 10 21 10 8 0 12 -4 9 -10z m1062 -75 c11
-12 -1 -55 -15 -55 -4 0 -17 7 -28 15 -10 8 -36 15 -57 15 -26 0 -37 4 -35 12
9 25 114 34 135 13z m-237 -106 c0 -6 -4 -7 -10 -4 -5 3 -10 11 -10 16 0 6 5
7 10 4 6 -3 10 -11 10 -16z m-20 -25 c0 -8 -4 -12 -10 -9 -5 3 -10 13 -10 21
0 8 5 12 10 9 6 -3 10 -13 10 -21z m10 -89 c7 -8 8 -15 2 -15 -5 0 -15 7 -22
15 -7 8 -8 15 -2 15 5 0 15 -7 22 -15z m609 -29 c7 -8 9 -25 6 -39 -6 -23 -10
-25 -30 -15 -27 12 -37 31 -29 53 8 19 38 19 53 1z m-79 -26 c14 -7 19 -20 18
-45 -1 -36 -7 -37 -45 -2 -31 28 -29 48 5 56 2 1 12 -4 22 -9z m-60 -63 c0 -7
-5 -19 -10 -27 -8 -13 -12 -12 -31 7 -19 18 -20 25 -10 37 10 12 18 13 32 5
10 -5 19 -15 19 -22z m-540 -28 c0 -5 -4 -9 -10 -9 -5 0 -10 7 -10 16 0 8 5
12 10 9 6 -3 10 -10 10 -16z m38 -69 c-7 -21 -14 -27 -28 -23 -47 12 -48 60
-2 65 34 4 42 -8 30 -42z m-105 -12 c7 -20 -11 -58 -27 -58 -47 0 -63 39 -23
58 30 14 44 14 50 0z m780 -13 c1 -5 -6 -11 -15 -13 -11 -2 -18 3 -18 13 0 17
30 18 33 0z m-613 -82 c0 -11 -115 -93 -130 -93 -4 0 -10 -6 -12 -12 -4 -10
-10 -10 -32 0 -38 17 -31 48 9 45 21 -1 48 10 85 36 47 32 80 42 80 24z m484
-54 c-3 -5 -12 -9 -20 -9 -8 0 -14 -5 -14 -12 0 -8 -6 -7 -16 4 -16 16 -11 43
6 33 5 -3 12 -1 15 5 5 8 11 7 21 -1 7 -6 11 -15 8 -20z m-720 -2 c6 -9 7 -19
3 -23 -9 -10 -48 26 -41 38 8 12 25 6 38 -15z m556 -27 c4 -49 0 -70 -14 -70
-19 0 -22 6 -31 57 -5 35 -4 42 12 45 23 6 31 -1 33 -32z m-660 -5 c26 -31
-31 -60 -69 -36 -12 8 -11 13 10 30 29 24 43 26 59 6z m493 -60 c-4 -15 -36
-12 -41 3 -3 9 3 13 19 10 13 -1 23 -7 22 -13z m467 -31 c0 -8 -4 -12 -10 -9
-5 3 -10 10 -10 16 0 5 5 9 10 9 6 0 10 -7 10 -16z m200 1 c7 -9 11 -17 9 -19
-7 -7 -49 13 -49 24 0 15 26 12 40 -5z m-429 -38 c-1 -12 -15 -9 -19 4 -3 6 1
10 8 8 6 -3 11 -8 11 -12z m349 -42 c10 -12 10 -15 -4 -15 -9 0 -16 7 -16 15
0 8 2 15 4 15 2 0 9 -7 16 -15z m-562 -30 c14 -31 15 -35 4 -35 -8 0 -32 43
-32 55 0 15 19 1 28 -20z m102 10 c0 -8 -4 -15 -9 -15 -13 0 -22 16 -14 24 11
11 23 6 23 -9z m-852 -18 c2 -10 -3 -17 -12 -17 -9 0 -16 2 -16 4 0 2 -3 12
-6 21 -5 13 -2 16 12 13 10 -2 20 -11 22 -21z m1048 -74 c-4 -4 -11 -1 -16 7
-16 25 -11 35 7 17 9 -9 13 -20 9 -24z m-380 -55 c4 -6 -3 -19 -16 -30 -21
-17 -25 -17 -39 -4 -14 14 -13 17 4 31 24 18 41 19 51 3z m-939 -232 c19 5 24
3 21 -7 -2 -8 -17 -15 -31 -17 -23 -3 -27 0 -26 20 0 13 3 17 6 11 3 -8 14
-11 30 -7z m343 -6 c0 -5 -2 -10 -4 -10 -3 0 -8 5 -11 10 -3 6 -1 10 4 10 6 0
11 -4 11 -10z m-15 -31 c11 -17 -1 -21 -15 -4 -8 9 -8 15 -2 15 6 0 14 -5 17
-11z m1000 -219 c3 -5 2 -10 -4 -10 -5 0 -13 5 -16 10 -3 6 -2 10 4 10 5 0 13
-4 16 -10z"/>
<path d="M984 15921 c4 -5 -4 -7 -15 -4 -16 5 -20 2 -17 -8 3 -8 11 -13 17
-11 6 1 11 -4 11 -10 0 -9 4 -8 10 2 13 20 13 40 -1 40 -5 0 -8 -4 -5 -9z"/>
<path d="M7341 12531 c-17 -11 -8 -39 15 -48 11 -4 22 1 31 13 12 16 11 20 -4
31 -20 15 -24 16 -42 4z"/>
<path d="M7456 10851 c-4 -7 -5 -15 -2 -18 9 -9 19 4 14 18 -4 11 -6 11 -12 0z"/>
<path d="M7 17666 c-11 -27 -9 -33 13 -39 23 -6 26 11 7 37 -13 18 -14 18 -20
2z"/>
<path d="M44 17587 c-8 -22 -1 -30 21 -25 14 3 14 5 1 23 -14 19 -15 19 -22 2z"/>
<path d="M2 17490 c-1 -45 1 -49 17 -38 29 18 21 87 -10 88 -3 0 -6 -22 -7
-50z"/>
<path d="M722 17038 c-18 -18 -14 -29 23 -73 31 -36 35 -37 35 -17 0 12 -4 22
-10 22 -5 0 -14 18 -20 40 -12 45 -12 44 -28 28z"/>
<path d="M652 16545 c0 -16 2 -22 5 -12 2 9 2 23 0 30 -3 6 -5 -1 -5 -18z"/>
<path d="M394 16544 c-7 -3 -10 -13 -7 -24 6 -24 33 -15 33 11 0 19 -5 21 -26
13z"/>
<path d="M609 16488 c-8 -26 -2 -49 13 -54 11 -3 22 -3 25 0 10 10 -8 56 -22
56 -8 0 -15 -1 -16 -2z"/>
<path d="M550 16296 c0 -8 8 -20 18 -25 16 -8 18 -6 17 12 -2 25 -35 37 -35
13z"/>
<path d="M408 16176 c-3 -14 -1 -31 3 -38 13 -21 43 14 34 41 -9 29 -32 27
-37 -3z"/>
</g>
</svg>
